<svg xmlns="http://www.w3.org/2000/svg" xmlns:xlink="http://www.w3.org/1999/xlink" xmlns:s="https://github.com/nturley/netlistsvg" width="1665" height="435.5"><style>    svg {
        stroke:#000;
        fill:none;
    }
    text {
        fill:#000;
        stroke:none;
        font-size:10px;
        font-weight: bold;
        font-family: "Courier New", monospace;
    }
    line {
        stroke-linecap: round;
    }
    .nodelabel {
        text-anchor: middle;
    }
    .inputPortLabel {
        text-anchor: end;
    }
    .splitjoinBody {
        fill:#000;
    }</style><g s:type="and" transform="translate(1308,111.5)" s:width="30" s:height="25" id="cell_$logic_and$/e:/Projects/Verilog/HW2Q2/user/sim/hw2q2.v:14$9"><s:alias val="$and"/><s:alias val="$logic_and"/><s:alias val="$_AND_"/><s:alias val="$reduce_and"/><path style="fill:#80D4FF" d="M0,0 L0,25 L15,25 A15 12.5 0 0 0 15,0 Z" class="cell_$logic_and$/e:/Projects/Verilog/HW2Q2/user/sim/hw2q2.v:14$9"/><g s:x="0" s:y="5" s:pid="A"/><g s:x="0" s:y="20" s:pid="B"/><g s:x="30" s:y="12.5" s:pid="Y"/><text x="3.0" y="15" class="smalltext">and</text></g><g s:type="not" transform="translate(1178,99)" s:width="30" s:height="20" id="cell_$logic_not$/e:/Projects/Verilog/HW2Q2/user/sim/hw2q2.v:14$5"><s:alias val="$_NOT_"/><s:alias val="$not"/><s:alias val="$logic_not"/><path style="fill:#FFE680" d="M0,0 L0,20 L20,10 Z" class="cell_$logic_not$/e:/Projects/Verilog/HW2Q2/user/sim/hw2q2.v:14$5"/><circle cx="24" cy="10" r="3" class="cell_$logic_not$/e:/Projects/Verilog/HW2Q2/user/sim/hw2q2.v:14$5"/><g s:x="-1" s:y="10" s:pid="A"/><g s:x="27" s:y="10" s:pid="Y"/></g><g s:type="not" transform="translate(1178,159)" s:width="30" s:height="20" id="cell_$logic_not$/e:/Projects/Verilog/HW2Q2/user/sim/hw2q2.v:14$7"><s:alias val="$_NOT_"/><s:alias val="$not"/><s:alias val="$logic_not"/><path style="fill:#FFE680" d="M0,0 L0,20 L20,10 Z" class="cell_$logic_not$/e:/Projects/Verilog/HW2Q2/user/sim/hw2q2.v:14$7"/><circle cx="24" cy="10" r="3" class="cell_$logic_not$/e:/Projects/Verilog/HW2Q2/user/sim/hw2q2.v:14$7"/><g s:x="-1" s:y="10" s:pid="A"/><g s:x="27" s:y="10" s:pid="Y"/></g><g s:type="not" transform="translate(1618,20)" s:width="30" s:height="20" id="cell_$logic_not$/e:/Projects/Verilog/HW2Q2/user/sim/hw2q2.v:9$2"><s:alias val="$_NOT_"/><s:alias val="$not"/><s:alias val="$logic_not"/><path style="fill:#FFE680" d="M0,0 L0,20 L20,10 Z" class="cell_$logic_not$/e:/Projects/Verilog/HW2Q2/user/sim/hw2q2.v:9$2"/><circle cx="24" cy="10" r="3" class="cell_$logic_not$/e:/Projects/Verilog/HW2Q2/user/sim/hw2q2.v:9$2"/><g s:x="-1" s:y="10" s:pid="A"/><g s:x="27" s:y="10" s:pid="Y"/></g><g s:type="or" transform="translate(1243,104)" s:width="30" s:height="25" id="cell_$logic_or$/e:/Projects/Verilog/HW2Q2/user/sim/hw2q2.v:14$8"><s:alias val="$or"/><s:alias val="$logic_or"/><s:alias val="$_OR_"/><s:alias val="$reduce_or"/><s:alias val="$reduce_bool"/><path style="fill:#80D4FF" d="M0,25 L0,25 L15,25 A15 12.5 0 0 0 15,0 L0,0" class="cell_$logic_or$/e:/Projects/Verilog/HW2Q2/user/sim/hw2q2.v:14$8"/><path style="fill:#ffffff" d="M0,0 A30 25 0 0 1 0,25" class="cell_$logic_or$/e:/Projects/Verilog/HW2Q2/user/sim/hw2q2.v:14$8"/><g s:x="2" s:y="5" s:pid="A"/><g s:x="2" s:y="20" s:pid="B"/><g s:x="30" s:y="12.5" s:pid="Y"/><text x="8.0" y="15" class="smalltext">or</text></g><g s:type="generic" transform="translate(1514,77.5)" s:width="60" s:height="45" id="cell_$procdff$25"><text x="30" y="-4" class="nodelabel cell_$procdff$25" s:attribute="ref">$aldff</text><rect style="fill:#EDF5FF" width="60" height="85" rx="5" ry="5" s:generic="body" class="cell_$procdff$25"/><g transform="translate(0,15)" s:x="0" s:y="15" s:pid="in0" id="port_$procdff$25~AD"><text x="-3" y="-4" class="inputPortLabel cell_$procdff$25">AD</text></g><g transform="translate(0,35)" s:x="0" s:y="15" s:pid="in0" id="port_$procdff$25~ALOAD"><text x="-3" y="-4" class="inputPortLabel cell_$procdff$25">ALOAD</text></g><g transform="translate(0,55)" s:x="0" s:y="15" s:pid="in0" id="port_$procdff$25~CLK"><text x="-3" y="-4" class="inputPortLabel cell_$procdff$25">CLK</text></g><g transform="translate(0,75)" s:x="0" s:y="15" s:pid="in0" id="port_$procdff$25~D"><text x="-3" y="-4" class="inputPortLabel cell_$procdff$25">D</text></g><g transform="translate(60,15)" s:x="60" s:y="15" s:pid="out0" id="port_$procdff$25~Q"><text x="5" y="-4" style="fill:#000; stroke:none" class="cell_$procdff$25">Q</text></g></g><g s:type="generic" transform="translate(283,174.5)" s:width="60" s:height="45" id="cell_$procdff$26"><text x="30" y="-4" class="nodelabel cell_$procdff$26" s:attribute="ref">$aldff-bus-bus</text><rect style="fill:#EDF5FF" width="60" height="85" rx="5" ry="5" s:generic="body" class="cell_$procdff$26"/><g transform="translate(0,15)" s:x="0" s:y="15" s:pid="in0" id="port_$procdff$26~AD"><text x="-3" y="-4" class="inputPortLabel cell_$procdff$26">AD</text></g><g transform="translate(0,35)" s:x="0" s:y="15" s:pid="in0" id="port_$procdff$26~ALOAD"><text x="-3" y="-4" class="inputPortLabel cell_$procdff$26">ALOAD</text></g><g transform="translate(0,55)" s:x="0" s:y="15" s:pid="in0" id="port_$procdff$26~CLK"><text x="-3" y="-4" class="inputPortLabel cell_$procdff$26">CLK</text></g><g transform="translate(0,75)" s:x="0" s:y="15" s:pid="in0" id="port_$procdff$26~D"><text x="-3" y="-4" class="inputPortLabel cell_$procdff$26">D</text></g><g transform="translate(60,15)" s:x="60" s:y="15" s:pid="out0" id="port_$procdff$26~Q"><text x="5" y="-4" style="fill:#000; stroke:none" class="cell_$procdff$26">Q</text></g></g><g s:type="mux" transform="translate(1373,63)" s:width="20" s:height="40" id="cell_$procmux$12"><s:alias val="$pmux"/><s:alias val="$mux"/><s:alias val="$_MUX_"/><path style="fill:#eeaaff" d="M0,0 L20,10 L20,30 L0,40 Z" class="cell_$procmux$12"/><text x="5" y="13" class="nodelabel cell_$procmux$12" s:attribute="">0</text><text x="5" y="32" class="nodelabel cell_$procmux$12" s:attribute="">1</text><g s:x="0" s:y="10" s:pid="A"/><g s:x="0" s:y="30" s:pid="B"/><g s:x="10" s:y="35" s:pid="S"/><g s:x="20" s:y="20" s:pid="Y"/></g><g s:type="mux" transform="translate(1428,73)" s:width="20" s:height="40" id="cell_$procmux$14"><s:alias val="$pmux"/><s:alias val="$mux"/><s:alias val="$_MUX_"/><path style="fill:#eeaaff" d="M0,0 L20,10 L20,30 L0,40 Z" class="cell_$procmux$14"/><text x="5" y="13" class="nodelabel cell_$procmux$14" s:attribute="">0</text><text x="5" y="32" class="nodelabel cell_$procmux$14" s:attribute="">1</text><g s:x="0" s:y="10" s:pid="A"/><g s:x="0" s:y="30" s:pid="B"/><g s:x="10" s:y="35" s:pid="S"/><g s:x="20" s:y="20" s:pid="Y"/></g><g s:type="generic" transform="translate(681,203.5)" s:width="60" s:height="45" id="cell_$procmux$18"><text x="30" y="-4" class="nodelabel cell_$procmux$18" s:attribute="ref">$mux-bus-bus</text><rect style="fill:#EDF5FF" width="60" height="65" rx="5" ry="5" s:generic="body" class="cell_$procmux$18"/><g transform="translate(0,15)" s:x="0" s:y="15" s:pid="in0" id="port_$procmux$18~A"><text x="-3" y="-4" class="inputPortLabel cell_$procmux$18">A</text></g><g transform="translate(0,35)" s:x="0" s:y="15" s:pid="in0" id="port_$procmux$18~B"><text x="-3" y="-4" class="inputPortLabel cell_$procmux$18">B</text></g><g transform="translate(0,55)" s:x="0" s:y="15" s:pid="in0" id="port_$procmux$18~S"><text x="-3" y="-4" class="inputPortLabel cell_$procmux$18">S</text></g><g transform="translate(60,15)" s:x="60" s:y="15" s:pid="out0" id="port_$procmux$18~Y"><text x="5" y="-4" style="fill:#000; stroke:none" class="cell_$procmux$18">Y</text></g></g><g s:type="generic" transform="translate(830,203.5)" s:width="60" s:height="45" id="cell_$procmux$20"><text x="30" y="-4" class="nodelabel cell_$procmux$20" s:attribute="ref">$mux-bus-bus</text><rect style="fill:#EDF5FF" width="60" height="65" rx="5" ry="5" s:generic="body" class="cell_$procmux$20"/><g transform="translate(0,15)" s:x="0" s:y="15" s:pid="in0" id="port_$procmux$20~A"><text x="-3" y="-4" class="inputPortLabel cell_$procmux$20">A</text></g><g transform="translate(0,35)" s:x="0" s:y="15" s:pid="in0" id="port_$procmux$20~B"><text x="-3" y="-4" class="inputPortLabel cell_$procmux$20">B</text></g><g transform="translate(0,55)" s:x="0" s:y="15" s:pid="in0" id="port_$procmux$20~S"><text x="-3" y="-4" class="inputPortLabel cell_$procmux$20">S</text></g><g transform="translate(60,15)" s:x="60" s:y="15" s:pid="out0" id="port_$procmux$20~Y"><text x="5" y="-4" style="fill:#000; stroke:none" class="cell_$procmux$20">Y</text></g></g><g s:type="generic" transform="translate(84,132)" s:width="60" s:height="45" id="cell_$procmux$23"><text x="30" y="-4" class="nodelabel cell_$procmux$23" s:attribute="ref">$mux-bus-bus</text><rect style="fill:#EDF5FF" width="60" height="65" rx="5" ry="5" s:generic="body" class="cell_$procmux$23"/><g transform="translate(0,15)" s:x="0" s:y="15" s:pid="in0" id="port_$procmux$23~A"><text x="-3" y="-4" class="inputPortLabel cell_$procmux$23">A</text></g><g transform="translate(0,35)" s:x="0" s:y="15" s:pid="in0" id="port_$procmux$23~B"><text x="-3" y="-4" class="inputPortLabel cell_$procmux$23">B</text></g><g transform="translate(0,55)" s:x="0" s:y="15" s:pid="in0" id="port_$procmux$23~S"><text x="-3" y="-4" class="inputPortLabel cell_$procmux$23">S</text></g><g transform="translate(60,15)" s:x="60" s:y="15" s:pid="out0" id="port_$procmux$23~Y"><text x="5" y="-4" style="fill:#000; stroke:none" class="cell_$procmux$23">Y</text></g></g><g s:type="reduce_xor" transform="translate(1070,96.5)" s:width="33" s:height="25" id="cell_$xor$/e:/Projects/Verilog/HW2Q2/user/sim/hw2q2.v:14$4"><s:alias val="$xor"/><s:alias val="$reduce_xor"/><s:alias val="$_XOR_"/><path style="fill:#80D4FF" d="M3,0 A30 25 0 0 1 3,25 A30 25 0 0 0 33,12.5 A30 25 0 0 0 3,0" class="cell_$xor$/e:/Projects/Verilog/HW2Q2/user/sim/hw2q2.v:14$4"/><path style="fill:#ffffff" d="M0,0 A30 25 0 0 1 0,25" class="cell_$xor$/e:/Projects/Verilog/HW2Q2/user/sim/hw2q2.v:14$4"/><g s:x="2" s:y="5" s:pid="A"/><g s:x="2" s:y="20" s:pid="B"/><g s:x="33" s:y="12.5" s:pid="Y"/><text x="10.0" y="15" class="smalltext">xor</text></g><g s:type="reduce_xor" transform="translate(1070,156.5)" s:width="33" s:height="25" id="cell_$xor$/e:/Projects/Verilog/HW2Q2/user/sim/hw2q2.v:14$6"><s:alias val="$xor"/><s:alias val="$reduce_xor"/><s:alias val="$_XOR_"/><path style="fill:#80D4FF" d="M3,0 A30 25 0 0 1 3,25 A30 25 0 0 0 33,12.5 A30 25 0 0 0 3,0" class="cell_$xor$/e:/Projects/Verilog/HW2Q2/user/sim/hw2q2.v:14$6"/><path style="fill:#ffffff" d="M0,0 A30 25 0 0 1 0,25" class="cell_$xor$/e:/Projects/Verilog/HW2Q2/user/sim/hw2q2.v:14$6"/><g s:x="2" s:y="5" s:pid="A"/><g s:x="2" s:y="20" s:pid="B"/><g s:x="33" s:y="12.5" s:pid="Y"/><text x="10.0" y="15" class="smalltext">xor</text></g><g s:type="inputExt" transform="translate(187,392.5)" s:width="30" s:height="20" id="cell_clk"><text x="15" y="-4" class="nodelabel cell_clk" s:attribute="ref">clk</text><s:alias val="$_inputExt_"/><path style="fill:#FDF766" d="M0,0 L0,16 L15,16 L24,8 L15,0 Z" class="cell_clk"/><g s:x="24" s:y="8" s:pid="Y"/></g><g s:type="inputExt" transform="translate(12,22)" s:width="30" s:height="20" id="cell_rst_n"><text x="15" y="-4" class="nodelabel cell_rst_n" s:attribute="ref">rst_n</text><s:alias val="$_inputExt_"/><path style="fill:#FDF766" d="M0,0 L0,16 L15,16 L24,8 L15,0 Z" class="cell_rst_n"/><g s:x="24" s:y="8" s:pid="Y"/></g><g s:type="inputExt" transform="translate(597,359.5)" s:width="30" s:height="20" id="cell_din_vld"><text x="15" y="-4" class="nodelabel cell_din_vld" s:attribute="ref">din_vld</text><s:alias val="$_inputExt_"/><path style="fill:#FDF766" d="M0,0 L0,16 L15,16 L24,8 L15,0 Z" class="cell_din_vld"/><g s:x="24" s:y="8" s:pid="Y"/></g><g s:type="inputExt" transform="translate(484,241)" s:width="30" s:height="20" id="cell_din"><text x="15" y="-4" class="nodelabel cell_din" s:attribute="ref">din</text><s:alias val="$_inputExt_"/><path style="fill:#FDF766" d="M0,0 L0,16 L15,16 L24,8 L15,0 Z" class="cell_din"/><g s:x="24" s:y="8" s:pid="Y"/></g><g s:type="outputExt" transform="translate(1617,85)" s:width="30" s:height="20" id="cell_result"><text x="15" y="-4" class="nodelabel cell_result" s:attribute="ref">result</text><s:alias val="$_outputExt_"/><path style="fill:#66FDD9" d="M24,0 L24,16 L10,16 L0,8 L10,0 Z" class="cell_result"/><g s:x="0" s:y="8" s:pid="A"/></g><g s:type="join" transform="translate(556,218.5)" s:width="4" s:height="40" id="cell_$join$,58,5,34,35,36,37,38,39,"><rect width="5" height="60" class="splitjoinBody" s:generic="body"/><s:alias val="$_join_"/><g s:x="5" s:y="20" s:pid="out"/><g transform="translate(0,10)" s:x="0" s:y="10" s:pid="in0"><text x="-3" y="-4" class="inputPortLabel">0</text></g><g transform="translate(0,30)" s:x="0" s:y="10" s:pid="in0"><text x="-3" y="-4" class="inputPortLabel">1</text></g><g transform="translate(0,50)" s:x="0" s:y="10" s:pid="in0"><text x="-3" y="-4" class="inputPortLabel">2:7</text></g></g><g s:type="split" transform="translate(425,289.5)" s:width="5" s:height="40" id="cell_$split$,33,34,35,36,37,38,39,40,"><rect width="5" height="20" class="splitjoinBody" s:generic="body"/><s:alias val="$_split_"/><g s:x="0" s:y="20" s:pid="in"/><g transform="translate(4,10)" s:x="4" s:y="10" s:pid="out0"><text x="5" y="-4">1:6</text></g></g><g s:type="split" transform="translate(972,91)" s:width="5" s:height="40" id="cell_$split$,50,51,52,53,54,55,56,57,"><rect width="5" height="20" class="splitjoinBody" s:generic="body"/><s:alias val="$_split_"/><g s:x="0" s:y="20" s:pid="in"/><g transform="translate(4,10)" s:x="4" s:y="10" s:pid="out0"><text x="5" y="-4">2:7</text></g></g><line x1="1273" x2="1308" y1="116.5" y2="116.5" class="net_7 width_1" style="stroke-width: 1"/><line x1="621" x2="1283" y1="367.5" y2="367.5" class="net_4 width_1" style="stroke-width: 1"/><line x1="1283" x2="1283" y1="367.5" y2="131.5" class="net_4 width_1" style="stroke-width: 1"/><line x1="1283" x2="1308" y1="131.5" y2="131.5" class="net_4 width_1" style="stroke-width: 1"/><line x1="621" x2="649" y1="367.5" y2="367.5" class="net_4 width_1" style="stroke-width: 1"/><line x1="649" x2="649" y1="367.5" y2="259" class="net_4 width_1" style="stroke-width: 1"/><circle cx="649" cy="367.5" r="2" style="fill:#000" class="net_4 width_1"/><line x1="649" x2="681" y1="259" y2="259" class="net_4 width_1" style="stroke-width: 1"/><line x1="1103" x2="1177" y1="109" y2="109" class="net_9,10,11,12,13,14 width_6" style="stroke-width: 2"/><line x1="1103" x2="1177" y1="169" y2="169" class="net_16,17,18,19,20,21 width_6" style="stroke-width: 2"/><line x1="36" x2="1617" y1="30" y2="30" class="net_3 width_1" style="stroke-width: 1"/><line x1="36" x2="1468" y1="30" y2="30" class="net_3 width_1" style="stroke-width: 1"/><line x1="1468" x2="1468" y1="30" y2="113" class="net_3 width_1" style="stroke-width: 1"/><circle cx="1468" cy="30" r="2" style="fill:#000" class="net_3 width_1"/><line x1="1468" x2="1514" y1="113" y2="113" class="net_3 width_1" style="stroke-width: 1"/><line x1="36" x2="52" y1="30" y2="30" class="net_3 width_1" style="stroke-width: 1"/><line x1="52" x2="52" y1="30" y2="210" class="net_3 width_1" style="stroke-width: 1"/><circle cx="52" cy="30" r="2" style="fill:#000" class="net_3 width_1"/><line x1="52" x2="283" y1="210" y2="210" class="net_3 width_1" style="stroke-width: 1"/><line x1="36" x2="52" y1="30" y2="30" class="net_3 width_1" style="stroke-width: 1"/><line x1="52" x2="52" y1="30" y2="210" class="net_3 width_1" style="stroke-width: 1"/><line x1="52" x2="162" y1="210" y2="210" class="net_3 width_1" style="stroke-width: 1"/><line x1="162" x2="162" y1="210" y2="422.5" class="net_3 width_1" style="stroke-width: 1"/><line x1="162" x2="237" y1="422.5" y2="422.5" class="net_3 width_1" style="stroke-width: 1"/><line x1="237" x2="237" y1="422.5" y2="338.5" class="net_3 width_1" style="stroke-width: 1"/><line x1="237" x2="572" y1="338.5" y2="338.5" class="net_3 width_1" style="stroke-width: 1"/><line x1="572" x2="572" y1="338.5" y2="389.5" class="net_3 width_1" style="stroke-width: 1"/><line x1="572" x2="1438" y1="389.5" y2="389.5" class="net_3 width_1" style="stroke-width: 1"/><circle cx="237" cy="338.5" r="2" style="fill:#000" class="net_3 width_1"/><circle cx="572" cy="338.5" r="2" style="fill:#000" class="net_3 width_1"/><line x1="1438" x2="1438" y1="389.5" y2="108" class="net_3 width_1" style="stroke-width: 1"/><line x1="36" x2="52" y1="30" y2="30" class="net_3 width_1" style="stroke-width: 1"/><line x1="52" x2="52" y1="30" y2="210" class="net_3 width_1" style="stroke-width: 1"/><line x1="52" x2="162" y1="210" y2="210" class="net_3 width_1" style="stroke-width: 1"/><line x1="162" x2="162" y1="210" y2="338.5" class="net_3 width_1" style="stroke-width: 1"/><line x1="162" x2="798" y1="338.5" y2="338.5" class="net_3 width_1" style="stroke-width: 1"/><line x1="798" x2="798" y1="338.5" y2="259" class="net_3 width_1" style="stroke-width: 1"/><circle cx="162" cy="210" r="2" style="fill:#000" class="net_3 width_1"/><circle cx="162" cy="338.5" r="2" style="fill:#000" class="net_3 width_1"/><line x1="798" x2="830" y1="259" y2="259" class="net_3 width_1" style="stroke-width: 1"/><line x1="36" x2="52" y1="30" y2="30" class="net_3 width_1" style="stroke-width: 1"/><line x1="52" x2="52" y1="30" y2="187.5" class="net_3 width_1" style="stroke-width: 1"/><circle cx="52" cy="187.5" r="2" style="fill:#000" class="net_3 width_1"/><line x1="52" x2="84" y1="187.5" y2="187.5" class="net_3 width_1" style="stroke-width: 1"/><line x1="1205" x2="1245" y1="109" y2="109" class="net_15 width_1" style="stroke-width: 1"/><line x1="1205" x2="1218" y1="169" y2="169" class="net_22 width_1" style="stroke-width: 1"/><line x1="1218" x2="1218" y1="169" y2="124" class="net_22 width_1" style="stroke-width: 1"/><line x1="1218" x2="1245" y1="124" y2="124" class="net_22 width_1" style="stroke-width: 1"/><line x1="1448" x2="1514" y1="93" y2="93" class="net_24 width_1" style="stroke-width: 1"/><line x1="1448" x2="1458" y1="93" y2="93" class="net_24 width_1" style="stroke-width: 1"/><line x1="1458" x2="1458" y1="93" y2="153" class="net_24 width_1" style="stroke-width: 1"/><circle cx="1458" cy="93" r="2" style="fill:#000" class="net_24 width_1"/><line x1="1458" x2="1514" y1="153" y2="153" class="net_24 width_1" style="stroke-width: 1"/><line x1="211" x2="1468" y1="400.5" y2="400.5" class="net_2 width_1" style="stroke-width: 1"/><line x1="1468" x2="1468" y1="400.5" y2="133" class="net_2 width_1" style="stroke-width: 1"/><line x1="1468" x2="1514" y1="133" y2="133" class="net_2 width_1" style="stroke-width: 1"/><line x1="211" x2="227" y1="400.5" y2="400.5" class="net_2 width_1" style="stroke-width: 1"/><line x1="227" x2="227" y1="400.5" y2="230" class="net_2 width_1" style="stroke-width: 1"/><circle cx="227" cy="400.5" r="2" style="fill:#000" class="net_2 width_1"/><line x1="227" x2="283" y1="230" y2="230" class="net_2 width_1" style="stroke-width: 1"/><line x1="145" x2="227" y1="147.5" y2="147.5" class="net_25,26,27,28,29,30,31,32 width_8" style="stroke-width: 2"/><line x1="227" x2="227" y1="147.5" y2="190" class="net_25,26,27,28,29,30,31,32 width_8" style="stroke-width: 2"/><line x1="227" x2="283" y1="190" y2="190" class="net_25,26,27,28,29,30,31,32 width_8" style="stroke-width: 2"/><line x1="145" x2="172" y1="147.5" y2="147.5" class="net_25,26,27,28,29,30,31,32 width_8" style="stroke-width: 2"/><line x1="172" x2="172" y1="147.5" y2="225" class="net_25,26,27,28,29,30,31,32 width_8" style="stroke-width: 2"/><line x1="172" x2="237" y1="225" y2="225" class="net_25,26,27,28,29,30,31,32 width_8" style="stroke-width: 2"/><line x1="237" x2="237" y1="225" y2="250" class="net_25,26,27,28,29,30,31,32 width_8" style="stroke-width: 2"/><circle cx="172" cy="147.5" r="3" style="fill:#000" class="net_25,26,27,28,29,30,31,32 width_8"/><line x1="237" x2="283" y1="250" y2="250" class="net_25,26,27,28,29,30,31,32 width_8" style="stroke-width: 2"/><line x1="524" x2="1373" y1="73" y2="73" class="net_58 width_1" style="stroke-width: 1"/><line x1="524" x2="1348" y1="73" y2="113" class="net_58 width_1" style="stroke-width: 1"/><line x1="1348" x2="1403" y1="113" y2="113" class="net_58 width_1" style="stroke-width: 1"/><line x1="1403" x2="1403" y1="113" y2="103" class="net_58 width_1" style="stroke-width: 1"/><circle cx="1348" cy="73" r="2" style="fill:#000" class="net_58 width_1"/><line x1="1403" x2="1428" y1="103" y2="103" class="net_58 width_1" style="stroke-width: 1"/><line x1="524" x2="524" y1="73" y2="229" class="net_58 width_1" style="stroke-width: 1"/><line x1="524" x2="556" y1="229" y2="229" class="net_58 width_1" style="stroke-width: 1"/><line x1="1338" x2="1383" y1="124" y2="124" class="net_8 width_1" style="stroke-width: 1"/><line x1="1383" x2="1383" y1="124" y2="98" class="net_8 width_1" style="stroke-width: 1"/><line x1="1393" x2="1428" y1="83" y2="83" class="net_41 width_1" style="stroke-width: 1"/><line x1="344" x2="649" y1="190" y2="190" class="net_33,34,35,36,37,38,39,40 width_8" style="stroke-width: 2"/><line x1="649" x2="649" y1="190" y2="219" class="net_33,34,35,36,37,38,39,40 width_8" style="stroke-width: 2"/><line x1="649" x2="681" y1="219" y2="219" class="net_33,34,35,36,37,38,39,40 width_8" style="stroke-width: 2"/><line x1="344" x2="361" y1="190" y2="190" class="net_33,34,35,36,37,38,39,40 width_8" style="stroke-width: 2"/><line x1="361" x2="361" y1="190" y2="322.5" class="net_33,34,35,36,37,38,39,40 width_8" style="stroke-width: 2"/><line x1="361" x2="425.5" y1="322.5" y2="322.5" class="net_33,34,35,36,37,38,39,40 width_8" style="stroke-width: 2"/><circle cx="361" cy="190" r="3" style="fill:#000" class="net_33,34,35,36,37,38,39,40 width_8"/><line x1="425.5" x2="425.5" y1="322.5" y2="310.5" class="net_33,34,35,36,37,38,39,40 width_8" style="stroke-width: 2"/><line x1="562" x2="681" y1="239" y2="239" class="net_58,5,34,35,36,37,38,39 width_8" style="stroke-width: 2"/><line x1="742" x2="830" y1="219" y2="219" class="net_42,43,44,45,46,47,48,49 width_8" style="stroke-width: 2"/><line x1="891" x2="908" y1="219" y2="219" class="net_50,51,52,53,54,55,56,57 width_8" style="stroke-width: 2"/><line x1="908" x2="908" y1="219" y2="112" class="net_50,51,52,53,54,55,56,57 width_8" style="stroke-width: 2"/><line x1="908" x2="62" y1="112" y2="112" class="net_50,51,52,53,54,55,56,57 width_8" style="stroke-width: 2"/><line x1="62" x2="62" y1="112" y2="147.5" class="net_50,51,52,53,54,55,56,57 width_8" style="stroke-width: 2"/><circle cx="908" cy="219" r="3" style="fill:#000" class="net_50,51,52,53,54,55,56,57 width_8"/><line x1="62" x2="84" y1="147.5" y2="147.5" class="net_50,51,52,53,54,55,56,57 width_8" style="stroke-width: 2"/><line x1="891" x2="972.5" y1="219" y2="219" class="net_50,51,52,53,54,55,56,57 width_8" style="stroke-width: 2"/><line x1="972.5" x2="972.5" y1="219" y2="112" class="net_50,51,52,53,54,55,56,57 width_8" style="stroke-width: 2"/><line x1="977" x2="1072" y1="101.5" y2="101.5" class="net_52,53,54,55,56,57 width_6" style="stroke-width: 2"/><line x1="977" x2="1006" y1="101.5" y2="101.5" class="net_52,53,54,55,56,57 width_6" style="stroke-width: 2"/><line x1="1006" x2="1006" y1="101.5" y2="161.5" class="net_52,53,54,55,56,57 width_6" style="stroke-width: 2"/><circle cx="1006" cy="101.5" r="3" style="fill:#000" class="net_52,53,54,55,56,57 width_6"/><line x1="1006" x2="1072" y1="161.5" y2="161.5" class="net_52,53,54,55,56,57 width_6" style="stroke-width: 2"/><line x1="1575" x2="1617" y1="93" y2="93" class="net_6 width_1" style="stroke-width: 1"/><line x1="508" x2="556" y1="249" y2="249" class="net_5 width_1" style="stroke-width: 1"/><line x1="430" x2="524" y1="300" y2="300" class="net_34,35,36,37,38,39 width_6" style="stroke-width: 2"/><line x1="524" x2="524" y1="300" y2="269" class="net_34,35,36,37,38,39 width_6" style="stroke-width: 2"/><line x1="524" x2="556" y1="269" y2="269" class="net_34,35,36,37,38,39 width_6" style="stroke-width: 2"/><rect x="1139" y="104" width="16" height="9" class="net_9,10,11,12,13,14 width_6 busLabel_6" style="fill: white; stroke: none"/><text x="1138" y="112" class="net_9,10,11,12,13,14 width_6 busLabel_6">/6/</text><rect x="1139" y="164" width="16" height="9" class="net_16,17,18,19,20,21 width_6 busLabel_6" style="fill: white; stroke: none"/><text x="1138" y="172" class="net_16,17,18,19,20,21 width_6 busLabel_6">/6/</text><rect x="201" y="220" width="16" height="9" class="net_25,26,27,28,29,30,31,32 width_8 busLabel_8" style="fill: white; stroke: none"/><text x="200" y="228" class="net_25,26,27,28,29,30,31,32 width_8 busLabel_8">/8/</text><rect x="201" y="220" width="16" height="9" class="net_25,26,27,28,29,30,31,32 width_8 busLabel_8" style="fill: white; stroke: none"/><text x="200" y="228" class="net_25,26,27,28,29,30,31,32 width_8 busLabel_8">/8/</text><rect x="387" y="317.5" width="16" height="9" class="net_33,34,35,36,37,38,39,40 width_8 busLabel_8" style="fill: white; stroke: none"/><text x="386" y="325.5" class="net_33,34,35,36,37,38,39,40 width_8 busLabel_8">/8/</text><rect x="387" y="317.5" width="16" height="9" class="net_33,34,35,36,37,38,39,40 width_8 busLabel_8" style="fill: white; stroke: none"/><text x="386" y="325.5" class="net_33,34,35,36,37,38,39,40 width_8 busLabel_8">/8/</text><rect x="617" y="234" width="16" height="9" class="net_58,5,34,35,36,37,38,39 width_8 busLabel_8" style="fill: white; stroke: none"/><text x="616" y="242" class="net_58,5,34,35,36,37,38,39 width_8 busLabel_8">/8/</text><rect x="785" y="214" width="16" height="9" class="net_42,43,44,45,46,47,48,49 width_8 busLabel_8" style="fill: white; stroke: none"/><text x="784" y="222" class="net_42,43,44,45,46,47,48,49 width_8 busLabel_8">/8/</text><rect x="934" y="214" width="16" height="9" class="net_50,51,52,53,54,55,56,57 width_8 busLabel_8" style="fill: white; stroke: none"/><text x="933" y="222" class="net_50,51,52,53,54,55,56,57 width_8 busLabel_8">/8/</text><rect x="934" y="214" width="16" height="9" class="net_50,51,52,53,54,55,56,57 width_8 busLabel_8" style="fill: white; stroke: none"/><text x="933" y="222" class="net_50,51,52,53,54,55,56,57 width_8 busLabel_8">/8/</text><rect x="1032" y="156.5" width="16" height="9" class="net_52,53,54,55,56,57 width_6 busLabel_6" style="fill: white; stroke: none"/><text x="1031" y="164.5" class="net_52,53,54,55,56,57 width_6 busLabel_6">/6/</text><rect x="1032" y="156.5" width="16" height="9" class="net_52,53,54,55,56,57 width_6 busLabel_6" style="fill: white; stroke: none"/><text x="1031" y="164.5" class="net_52,53,54,55,56,57 width_6 busLabel_6">/6/</text><rect x="498" y="295" width="16" height="9" class="net_34,35,36,37,38,39 width_6 busLabel_6" style="fill: white; stroke: none"/><text x="497" y="303" class="net_34,35,36,37,38,39 width_6 busLabel_6">/6/</text></svg>